<?xml version="1.0" encoding="UTF-8"?>
<svg id="Layer_1" data-name="Layer 1" xmlns="http://www.w3.org/2000/svg" viewBox="0 0 2000 795.24">
  <defs>
    <style>
      .cls-1 {
        fill: #4c4b4b;
      }

      .cls-2 {
        fill: #0052ff;
      }
    </style>
  </defs>
  <g>
    <path class="cls-1" d="m999.65,413.74c0,58.23-41.73,103.96-98.96,103.96-22.74,0-48.23-9.75-63.98-33.49v110.71h-47.73v-277.15h47.73v26.99c16.24-22.74,41.98-32.74,65.48-32.74,56.98,0,97.46,45.48,97.46,101.71h0Zm-49.23,1c0-33.99-24.74-57.73-57.48-57.73s-57.73,26.99-57.73,57.73,23.49,57.73,57.73,57.73c32.49.25,57.48-24.24,57.48-57.73Z"/>
    <path class="cls-1" d="m1236.81,307.28v204.67h-47.73v-27.74c-16.24,23.24-41.98,33.49-65.48,33.49-56.98,0-97.96-45.48-97.96-101.71s41.73-103.96,99.46-103.96c22.74,0,48.98,10,64.48,34.24l47.23-38.99h0Zm-46.23,107.46c0-29.99-23.49-57.73-57.73-57.73s-57.73,23.99-57.73,57.73,24.99,57.73,57.48,57.73c33.99.25,57.98-26.74,57.98-57.73h0Z"/>
    <path class="cls-1" d="m1478.72,393.25v118.71h-49.73v-108.71c0-29.24-16.24-46.73-43.23-46.73-30.49,0-48.48,21.49-48.48,54.23v100.96h-49.98v-193.93h49.98v24.99c12.75-19.99,35.49-30.74,64.48-30.74,49.98,0,76.97,32.74,76.97,81.22Z"/>
    <path class="cls-1" d="m1517.71,254.55c0-19.74,16.24-33.99,33.99-33.99s34.24,15.49,34.24,33.99-15.74,33.49-34.24,33.49c-18.49,0-33.99-14.24-33.99-33.49Zm9.25,257.4v-194.18h49.98v194.18h-49.98Z"/>
    <path class="cls-1" d="m1811.85,431.48h-149.19c7,35.49,34.24,45.98,58.48,45.98,18.99,0,36.74-8,47.48-22.74l34.24,23.99c-18.49,26.49-48.48,39.24-82.47,39.24-63.98,0-105.21-43.98-105.21-102.96s41.98-102.96,100.96-102.96,97.46,45.48,97.46,98.96c0,6.25-.75,14.24-1.75,20.49h0Zm-43.98-34.74c-4.5-25.74-23.24-44.98-51.23-44.98-23.49,0-46.98,15.49-53.48,44.98h104.71Z"/>
    <path class="cls-1" d="m1901.07,342.26c14.24-20.74,37.74-30.49,60.48-30.49v49.73c-2.75-.75-6.25-.75-9.25-.75-28.99.5-51.23,16.99-51.23,49.98v100.96h-49.98v-193.93h49.98v24.49h0Z"/>
  </g>
  <g>
    <path class="cls-2" d="m241.43,676.14h-58.23c-4.5,0-8.25-3.75-8.25-8.25v-119.96c0-5.25,4.25-9.75,9.75-9.75h60.98c5.25,0,9.75,4.25,9.75,9.75v43.48c0,2,1.75,3.5,3.75,3.25,57.98-8.75,102.21-60.23,99.21-121.45-2.75-56.73-47.73-104.46-104.46-110.21-65.23-7-122.7,41.73-128.7,105.21v278.4c0,4.5-3.5,8-7.75,8H53c-4.25,0-8-3.5-7.75-8v-283.39c9-112.46,113.71-197.93,229.41-178.68,87.72,14.74,155.69,88.22,163.44,176.93,9.75,116.71-82.22,214.67-196.68,214.67Z"/>
    <path class="cls-2" d="m558.81,479.21c0,75.47-26.74,147.95-75.47,205.42-3.25,3.75-9,4-12.75.75l-46.48-41.98c-3.5-3.25-3.75-8.75-.75-12.25,35.74-42.73,55.23-96.21,55.23-151.94,0-130.95-106.46-237.16-237.16-237.16-58.98,0-115.21,21.49-158.94,61.23-3.5,3.25-9,3.25-12.25-.25l-43.73-44.98c-3.5-3.5-3.25-9.25.25-12.75,58.73-53.98,134.45-83.47,214.42-83.47,175.43-.25,317.63,142.2,317.63,317.38Z"/>
    <path class="cls-2" d="m679.02,471.22c.25,4.25-3.25,7.75-7.75,7.75h-64.98c-3.75,0-7-3-7.5-6.5,0-3.25-.25-6.5-.25-9.75-8.25-185.18-157.69-334.13-343.12-341.37-2,0-4,0-6-.25-4.5-.75-8-4.75-8-9.5v-61.48c0-4.75,3.5-8.75,8-9.5,2,0,4,0,6,.25,227.92,7.25,412.6,189.68,423.34,416.6v1.5l.25,12.25Z"/>
  </g>
</svg>